# Rhino

mtllib Glass.mtl
o object_1
usemtl diffuse_Black
v -10.02000045776367 0 -9.008284568786621
v -10.02000045776367 0 9.008284568786621
v -9.008284568786621 0 10.02000045776367
v 9.008284568786621 0 10.02000045776367
v 10.02000045776367 0 9.008284568786621
v 10.02000045776367 0 -9.008284568786621
v 9.008284568786621 0 -10.02000045776367
v -9.008284568786621 0 -10.02000045776367
v -10 0 9
v -10 0 -9
v -9 0 -10
v 9 0 -10
v 10 0 -9
v 10 0 9
v 9 0 10
v -9 0 10
v -10.02000045776367 125.4310684204102 9.008284568786621
v -10.02000045776367 125.4310684204102 -9.008284568786621
v -9.008284568786621 125.4310684204102 10.02000045776367
v 9.008284568786621 125.4310684204102 10.02000045776367
v 10.02000045776367 125.4310684204102 9.008284568786621
v 10.02000045776367 125.4310684204102 -9.008284568786621
v 9.008284568786621 125.4310684204102 -10.02000045776367
v -9.008284568786621 125.4310684204102 -10.02000045776367
v -9 125.4310684204102 -10
v -10 125.4310684204102 -9
v 9 125.4310684204102 -10
v 10 125.4310684204102 -9
v 10 125.4310684204102 9
v 9 125.4310684204102 10
v -9 125.4310684204102 10
v -10 125.4310684204102 9
vt 0.8274891376495361 0.1223219111561775
vt 0.8274891376495361 0.007710787933319807
vt 0.8339976072311401 0.001274830428883433
vt 0.9498998522758484 0.001274830428883433
vt 0.9564082622528076 0.007710787933319807
vt 0.9564082622528076 0.1223219111561775
vt 0.9498998522758484 0.1287578642368317
vt 0.8339976072311401 0.1287578642368317
vt 0.8276178240776062 0.007763487752526999
vt 0.8276178240776062 0.1222692057490349
vt 0.8340508937835693 0.1286306381225586
vt 0.9498465061187744 0.1286306381225586
vt 0.9562796354293823 0.1222692057490349
vt 0.9562796354293823 0.007763487752526999
vt 0.9498465061187744 0.001402058987878263
vt 0.8340508937835693 0.001402058987878263
vt 0.5364976525306702 0
vt 0.5364976525306702 0.8069095611572266
vt 0.6509350538253784 0
vt 0.6509350538253784 0.8069095611572266
vt 0.508884608745575 0
vt 0.508884608745575 0.8069095611572266
vt 0.5166240930557251 0
vt 0.5166240930557251 0.8069095611572266
vt 0.7683021426200867 0.1314975321292877
vt 0.7683021426200867 0.9369422793388367
vt 0.8827394843101502 0.1314975321292877
vt 0.8827394843101502 0.9369422793388367
vt 0.4996802508831024 0
vt 0.4996802508831024 0.8069095611572266
vt 0.507419764995575 0
vt 0.507419764995575 0.8069095611572266
vt 0.6523998975753784 0.1314975321292877
vt 0.6523998975753784 0.9369422793388367
vt 0.7668372988700867 0.1314975321292877
vt 0.7668372988700867 0.9369422793388367
vt 0.52729332447052 0
vt 0.52729332447052 0.8069095611572266
vt 0.5350328087806702 0
vt 0.5350328087806702 0.8069095611572266
vt 0.3473869562149048 0
vt 0.3473869562149048 0.8069095611572266
vt 0.4618243277072907 0
vt 0.4618243277072907 0.8069095611572266
vt 0.5180889368057251 0
vt 0.5180889368057251 0.8069095611572266
vt 0.52582848072052 0
vt 0.52582848072052 0.8069095611572266
vt 0.4723869562149048 0
vt 0.4723869562149048 0.8069095611572266
vt 0.4800198674201965 0
vt 0.4800198674201965 0.8069095611572266
vt 0.2315912991762161 0
vt 0.2315912991762161 0.8069095611572266
vt 0.3459221124649048 0
vt 0.3459221124649048 0.8069095611572266
vt 0.4632891714572907 0
vt 0.4632891714572907 0.8069095611572266
vt 0.4709221124649048 0
vt 0.4709221124649048 0.8069095611572266
vt 0.1157956495881081 0
vt 0.1157956495881081 0.8069095611572266
vt 0.2301264554262161 0
vt 0.2301264554262161 0.8069095611572266
vt 0.4905824661254883 0
vt 0.4905824661254883 0.8069095611572266
vt 0.4982154071331024 0
vt 0.4982154071331024 0.8069095611572266
vt 0 0
vt 0 0.8069095611572266
vt 0.1143308058381081 0
vt 0.1143308058381081 0.8069095611572266
vt 0.4814847111701965 0
vt 0.4814847111701965 0.8069095611572266
vt 0.4891176223754883 0
vt 0.4891176223754883 0.8069095611572266
vt 0.8842043280601502 0.1314975321292877
vt 0.8842043280601502 0.9369422793388367
vt 0.99853515625 0.1314975321292877
vt 0.99853515625 0.9369422793388367
vt 0.6536890864372253 0.1223219111561775
vt 0.6536890864372253 0.007710787933319807
vt 0.6601975560188294 0.001274830428883433
vt 0.7760998010635376 0.001274830428883433
vt 0.7826082110404968 0.007710787933319807
vt 0.7826082110404968 0.1223219111561775
vt 0.7760998010635376 0.1287578642368317
vt 0.6601975560188294 0.1287578642368317
vt 0.6538177132606506 0.1222692057490349
vt 0.6602508425712585 0.1286306381225586
vt 0.7760464549064636 0.1286306381225586
vt 0.7824795842170715 0.1222692057490349
vt 0.7824795842170715 0.007763487752526999
vt 0.7760464549064636 0.001402058987878263
vt 0.6602508425712585 0.001402058987878263
vt 0.6538177132606506 0.007763487752526999
vn 0 -1 0
vn 0 -1 0
vn 0 -1 0
vn 0 -1 0
vn 0 -1 0
vn 0 -1 0
vn 0 -1 0
vn 0 -1 0
vn 0 -1 0
vn 0 -1 0
vn 0 -1 0
vn 0 -1 0
vn 0 -1 0
vn 0 -1 0
vn 0 -1 0
vn 0 -1 0
vn -1 0 0
vn -1 0 0
vn -1 0 0
vn -1 0 0
vn -0.7071067690849304 0 0.7071067690849304
vn -0.7071067690849304 0 0.7071067690849304
vn -0.7071067690849304 0 0.7071067690849304
vn -0.7071067690849304 0 0.7071067690849304
vn 0 0 1
vn 0 0 1
vn 0 0 1
vn 0 0 1
vn 0.7071067690849304 0 0.7071067690849304
vn 0.7071067690849304 0 0.7071067690849304
vn 0.7071067690849304 0 0.7071067690849304
vn 0.7071067690849304 0 0.7071067690849304
vn 1 0 0
vn 1 0 0
vn 1 0 0
vn 1 0 0
vn 0.7071067690849304 0 -0.7071067690849304
vn 0.7071067690849304 0 -0.7071067690849304
vn 0.7071067690849304 0 -0.7071067690849304
vn 0.7071067690849304 0 -0.7071067690849304
vn 0 0 -1
vn 0 0 -1
vn 0 0 -1
vn 0 0 -1
vn -0.7071067690849304 0 -0.7071067690849304
vn -0.7071067690849304 0 -0.7071067690849304
vn -0.7071067690849304 0 -0.7071067690849304
vn -0.7071067690849304 0 -0.7071067690849304
vn 0.7071067690849304 0 0.7071067690849304
vn 0.7071067690849304 0 0.7071067690849304
vn 0.7071067690849304 0 0.7071067690849304
vn 0.7071067690849304 0 0.7071067690849304
vn 0 0 1
vn 0 0 1
vn 0 0 1
vn 0 0 1
vn -0.7071067690849304 0 0.7071067690849304
vn -0.7071067690849304 0 0.7071067690849304
vn -0.7071067690849304 0 0.7071067690849304
vn -0.7071067690849304 0 0.7071067690849304
vn -1 0 0
vn -1 0 0
vn -1 0 0
vn -1 0 0
vn -0.7071067690849304 0 -0.7071067690849304
vn -0.7071067690849304 0 -0.7071067690849304
vn -0.7071067690849304 0 -0.7071067690849304
vn -0.7071067690849304 0 -0.7071067690849304
vn 0 0 -1
vn 0 0 -1
vn 0 0 -1
vn 0 0 -1
vn 0.7071067690849304 0 -0.7071067690849304
vn 0.7071067690849304 0 -0.7071067690849304
vn 0.7071067690849304 0 -0.7071067690849304
vn 0.7071067690849304 0 -0.7071067690849304
vn 1 0 0
vn 1 0 0
vn 1 0 0
vn 1 0 0
vn 0 1 0
vn 0 1 0
vn 0 1 0
vn 0 1 0
vn 0 1 0
vn 0 1 0
vn 0 1 0
vn 0 1 0
vn 0 1 0
vn 0 1 0
vn 0 1 0
vn 0 1 0
vn 0 1 0
vn 0 1 0
vn 0 1 0
vn 0 1 0
f 9/9/9 2/2/2 1/1/1 10/10/10
f 3/3/3 2/2/2 9/9/9
f 9/9/9 16/16/16 3/3/3
f 3/3/3 16/16/16 15/15/15 4/4/4
f 11/11/11 10/10/10 1/1/1
f 11/11/11 8/8/8 7/7/7 12/12/12
f 1/1/1 8/8/8 11/11/11
f 5/5/5 4/4/4 15/15/15
f 5/5/5 14/14/14 13/13/13 6/6/6
f 15/15/15 14/14/14 5/5/5
f 13/13/13 12/12/12 7/7/7
f 7/7/7 6/6/6 13/13/13
f 17/18/18 18/20/20 1/19/19 2/17/17
f 19/22/22 17/24/24 2/23/23 3/21/21
f 20/26/26 19/28/28 3/27/27 4/25/25
f 21/30/30 20/32/32 4/31/31 5/29/29
f 22/34/34 21/36/36 5/35/35 6/33/33
f 23/38/38 22/40/40 6/39/39 7/37/37
f 24/42/42 23/44/44 7/43/43 8/41/41
f 18/46/46 24/48/48 8/47/47 1/45/45
f 25/50/50 26/52/52 10/51/51 11/49/49
f 27/54/54 25/56/56 11/55/55 12/53/53
f 28/58/58 27/60/60 12/59/59 13/57/57
f 29/62/62 28/64/64 13/63/63 14/61/61
f 30/66/66 29/68/68 14/67/67 15/65/65
f 31/70/70 30/72/72 15/71/71 16/69/69
f 32/74/74 31/76/76 16/75/75 9/73/73
f 26/78/78 32/80/80 9/79/79 10/77/77
f 32/96/96 26/89/89 18/81/81 17/82/82
f 19/83/83 32/96/96 17/82/82
f 32/96/96 19/83/83 31/95/95
f 19/83/83 20/84/84 30/94/94 31/95/95
f 25/90/90 18/81/81 26/89/89
f 25/90/90 27/91/91 23/87/87 24/88/88
f 18/81/81 25/90/90 24/88/88
f 21/85/85 30/94/94 20/84/84
f 21/85/85 22/86/86 28/92/92 29/93/93
f 30/94/94 21/85/85 29/93/93
f 28/92/92 23/87/87 27/91/91
f 23/87/87 28/92/92 22/86/86
