# Rhino

mtllib Balcony.mtl
o object_1
usemtl diffuse_Black
v 0 0.4000000059604645 -1.450000047683716
v 0 0 -1.450000047683716
v 0.8999999761581421 0.07063557207584381 -1.450000047683716
v 0.8999999761581421 0.4000000059604645 -1.450000047683716
v 0.8999999761581421 0.4000000059604645 -1.549999952316284
v 0 0 -1.549999952316284
v 0 0.4000000059604645 -1.549999952316284
v 0.8999999761581421 0.07063557207584381 -1.549999952316284
v 0 15 0
v 1 15 0
v 0 0 0
v 1 0.07848396897315979 0
v 1 0.07848396897315979 -3
v 1 15 -3
v 0 15 -3
v 0 0 -3
v 0 0.4000000059604645 -2.900000095367432
v 0.8999999761581421 0.4000000059604645 -2.900000095367432
v 0.8999999761581421 0.4000000059604645 -0.1000000014901161
v 0 0 -0.1000000014901161
v 0 0.4000000059604645 -0.1000000014901161
v 0.8999999761581421 0.07063557207584381 -0.1000000014901161
v 0 0 -2.900000095367432
v 0.8999999761581421 0.07063557207584381 -2.900000095367432
vt 0.2168204188346863 0.4218765497207642
vt 0.2168204188346863 0.4440987706184387
vt 0.1666666716337204 0.4440987706184387
vt 0.1666666716337204 0.4257141649723053
vt 0.1666666716337204 0.2922232151031494
vt 0.2166666686534882 0.2700009942054749
vt 0.2166666686534882 0.2922232151031494
vt 0.1666666716337204 0.2739251852035523
vt 0.1666666716337204 0.4725017249584198
vt 0.1666666716337204 0.5282281041145325
vt 0.99853515625 0.4725017249584198
vt 0.99853515625 0.5282281041145325
vt 0.9956398010253906 0
vt 0.1666666716337204 0
vt 0.9956398010253906 0.1666666716337204
vt 0.1666666716337204 0.1666666716337204
vt 0.1666666716337204 0.7430562376976013
vt 0.1666666716337204 0.7987826466560364
vt 0.99853515625 0.7430562376976013
vt 0.99853515625 0.7987826466560364
vt 0.3333333432674408 0.5627788305282593
vt 0.1666666716337204 0.5627788305282593
vt 0.3333333432674408 0.6183343529701233
vt 0.1666666716337204 0.6183343529701233
vt 0.583801805973053 0.4260012805461884
vt 0.6338018178939819 0.3510012924671173
vt 0.6338018178939819 0.4260012805461884
vt 0.583801805973053 0.3510012924671173
vt 0.1666666716337204 0.3934735655784607
vt 0.2166666686534882 0.3712513446807861
vt 0.2166666686534882 0.3934735655784607
vt 0.1666666716337204 0.3751755654811859
vt 0.1666666716337204 0.3206261694431305
vt 0.1666666716337204 0.3428483903408051
vt 0.2166666686534882 0.3428483903408051
vt 0.2166666686534882 0.3245503604412079
vt 0.5472963452339172 0.2700009942054749
vt 0.4722963273525238 0.2700009942054749
vt 0.5472963452339172 0.3200009763240814
vt 0.4722963273525238 0.3200009763240814
vt 0.9067925214767456 0.3510012924671173
vt 0.8884944915771484 0.3510012924671173
vt 0.9067925214767456 0.4260012805461884
vt 0.8884944915771484 0.4260012805461884
vt 0.490594357252121 0.3510012924671173
vt 0.4722963273525238 0.4260012805461884
vt 0.4722963273525238 0.3510012924671173
vt 0.490594357252121 0.4260012805461884
vt 0.3333333432674408 0.6527791619300842
vt 0.1666666716337204 0.6527791619300842
vt 0.3333333432674408 0.7085055708885193
vt 0.1666666716337204 0.7085055708885193
vt 0.2527777850627899 0.6527791619300842
vt 0.2527777850627899 0.7029328942298889
vt 0.2472222298383713 0.7029328942298889
vt 0.2472222298383713 0.6527791619300842
vt 0.172222226858139 0.6527791619300842
vt 0.327777773141861 0.7029328942298889
vt 0.327777773141861 0.6527791619300842
vt 0.172222226858139 0.7029328942298889
vt 0 0
vt 0 0.8318684697151184
vt 0.1652018278837204 0
vt 0.1652018278837204 0.8318684697151184
vt 0.0798475444316864 0.02218315936625004
vt 0.0798475444316864 0
vt 0.0853542760014534 0
vt 0.0853542760014534 0.02218315936625004
vt 0.1596950888633728 0
vt 0.0055067278444767 0
vt 0.0055067278444767 0.02218315936625004
vt 0.1596950888633728 0.02218315936625004
vn 0 0 1
vn 0 0 1
vn 0 0 1
vn 0 0 1
vn 0 0 -1
vn 0 0 -1
vn 0 0 -1
vn 0 0 -1
vn 0 0 1
vn 0 0 1
vn 0 0 1
vn 0 0 1
vn 1 0 0
vn 1 0 0
vn 1 0 0
vn 1 0 0
vn 0 0 -1
vn 0 0 -1
vn 0 0 -1
vn 0 0 -1
vn 0 1 0
vn 0 1 0
vn 0 1 0
vn 0 1 0
vn 0 -1 0
vn 0 -1 0
vn 0 -1 0
vn 0 -1 0
vn 0 0 -1
vn 0 0 -1
vn 0 0 -1
vn 0 0 -1
vn 0 0 1
vn 0 0 1
vn 0 0 1
vn 0 0 1
vn 0 -1 0
vn 0 -1 0
vn 0 -1 0
vn 0 -1 0
vn -1 0 0
vn -1 0 0
vn -1 0 0
vn -1 0 0
vn -1 0 0
vn -1 0 0
vn -1 0 0
vn -1 0 0
vn 0.07824335992336273 -0.9969342947006226 0
vn 0.07824335992336273 -0.9969342947006226 0
vn 0.07824335992336273 -0.9969342947006226 0
vn 0.07824335992336273 -0.9969342947006226 0
vn 0.07824335992336273 -0.9969342947006226 0
vn 0.07824335992336273 -0.9969342947006226 0
vn 0.07824335992336273 -0.9969342947006226 0
vn 0.07824335992336273 -0.9969342947006226 0
vn 0.07824335992336273 -0.9969342947006226 0
vn 0.07824335992336273 -0.9969342947006226 0
vn 0.07824335992336273 -0.9969342947006226 0
vn 0.07824335992336273 -0.9969342947006226 0
vn -1 0 0
vn -1 0 0
vn -1 0 0
vn -1 0 0
vn -1 0 0
vn -1 0 0
vn -1 0 0
vn -1 0 0
vn -1 0 0
vn -1 0 0
vn -1 0 0
vn -1 0 0
f 11/49/49 20/59/59 22/58/58 3/54/54 2/53/53 6/56/56 8/55/55 24/60/60 \
23/57/57 16/50/50 13/52/52 12/51/51
f 21/71/71 20/70/70 11/61/61 9/62/62 15/64/64 16/63/63 23/69/69 \
17/72/72 7/68/68 6/67/67 2/66/66 1/65/65
f 1/1/1 2/2/2 3/3/3 4/4/4
f 5/5/5 8/8/8 6/6/6 7/7/7
f 10/10/10 9/9/9 11/11/11 12/12/12
f 10/14/14 12/13/13 13/15/15 14/16/16
f 15/18/18 14/17/17 13/19/19 16/20/20
f 15/22/22 9/21/21 10/23/23 14/24/24
f 17/25/25 18/27/27 5/26/26 7/28/28
f 19/29/29 22/32/32 20/30/30 21/31/31
f 17/34/34 23/33/33 24/36/36 18/35/35
f 1/38/38 4/40/40 19/39/39 21/37/37
f 18/42/42 24/41/41 8/43/43 5/44/44
f 4/47/47 3/45/45 22/48/48 19/46/46
