# Rhino

mtllib String.mtl
o object_1
usemtl diffuse_Black
v 0.5 50 -0.5
v 0.5 50 0.5
v -0.5 50 -0.5
v -0.5 50 0.5
v -0.5 -50 -0.5
v -0.5 -50 0.5
v 0.5 -50 -0.5
v 0.5 -50 0.5
vt 0 0
vt 0 0.6666662096977234
vt 0.04545454680919647 0
vt 0.04545454680919647 0.6666662096977234
vt 0.04545454680919647 0
vt 0.04545454680919647 0.6666662096977234
vt 0.5 0
vt 0.5 0.6666662096977234
vt 0.5 0
vt 0.5 0.6666662096977234
vt 0.5454545617103577 0
vt 0.5454545617103577 0.6666662096977234
vt 0.5454545617103577 0
vt 0.5454545617103577 0.6666662096977234
vt 1 0
vt 1 0.6666662096977234
vt 0.4950495064258575 1
vt 0.4950495064258575 0.6666668653488159
vt 0 0.6666668653488159
vt 0 1
vt 1 0.6666668653488159
vt 1 1
vt 0.5049505233764648 1
vt 0.5049505233764648 0.6666668653488159
vn 0 1 0
vn 0 1 0
vn 0 1 0
vn 0 1 0
vn -1 0 0
vn -1 0 0
vn -1 0 0
vn -1 0 0
vn 0 -1 0
vn 0 -1 0
vn 0 -1 0
vn 0 -1 0
vn 1 0 0
vn 1 0 0
vn 1 0 0
vn 1 0 0
vn 0 0 -1
vn 0 0 -1
vn 0 0 -1
vn 0 0 -1
vn 0 0 1
vn 0 0 1
vn 0 0 1
vn 0 0 1
f 3/18/18 1/17/17 7/20/20 5/19/19
f 8/24/24 2/21/21 4/22/22 6/23/23
f 1/1/1 3/3/3 4/4/4 2/2/2
f 3/5/5 5/7/7 6/8/8 4/6/6
f 5/9/9 7/11/11 8/12/12 6/10/10
f 7/13/13 1/15/15 2/16/16 8/14/14
